<svg xmlns="http://www.w3.org/2000/svg" width="446.334" height="495.92" viewBox="0 0 446.334 495.92">
  <g id="Group_179" data-name="Group 179" transform="translate(-248.517 -242.41)" opacity="0.03">
    <path id="Path_402" data-name="Path 402" d="M450.3,502.23c-14.2.436-26.3-4.174-35.822-14.974-.871-.988-1.692-2.023-2.6-2.974-13.833-14.478-27.887-13.428-40.969,1.731-5.475,6.344-12.484,12.307-20.027,15.736-18.4,8.366-40.985-.512-50.744-18.5-10.039-18.508-4.947-41.828,11.8-53.58,3.223-2.262,6.673-4.215,10.1-6.172,21.727-12.429,27.44-30.582,16.729-53.3-7.525-15.965-.353-34.215,15.871-40.384s33.806,2.779,38.721,19.719a29.407,29.407,0,0,1-10.2,31.093,24.885,24.885,0,0,1-4.608,3.04c-12.946,5.987-22.422,14.791-20.517,30.258,2,16.287,12.3,27.734,25.727,35.918,7.734,4.713,16.309,1.262,22.844-6.776,5.783-7.112,11.7-14.132,17.837-20.939,10.142-11.253,9.889-24.205-1.581-36.612-9.367-10.135-13.427-21.712-8.719-34.769,2.217-6.15,6.623-11.974,11.3-16.69,15.33-15.449,16.359-27.966,2.7-44.958-10.432-12.978-9.245-30.165,2.779-40.258a28.031,28.031,0,0,1,38.525,2.67c10.646,11.827,9.46,28.692-2.828,40.214-14.924,13.994-15.377,25.712-.947,40.54,8.167,8.392,14.66,17.27,14.152,29.652-.4,9.71-4.61,17.5-11.327,24.428-13.668,14.094-12.857,25.549,2.49,37.868,15.781,12.666,21.987,28.709,16.438,48.3-5.576,19.682,8.434,45.2,32.976,45.147,27.422-.063,46.635,21.717,46.74,48.57.1,25.3-19.214,46.185-45.16,47.938-16.207,1.1-29.6-5.225-40.394-17.543-15.007-17.129-34.073-22.907-53.874-14.753-8.154,3.358-15.2,10.048-21.91,16.147-18.721,17.023-48.7,9.987-57-13.743a35.04,35.04,0,0,1,11.787-39.632,34.462,34.462,0,0,1,41.238-.756c5.813,4.085,10.976,9.3,17.191,12.552,6.834,3.576,14.407,7.222,21.892,7.8,25.332,1.967,43.2-22.724,34.776-46.874C471.717,505.969,464.733,501.787,450.3,502.23Z" transform="translate(27.009 0)" fill="#fff"/>
    <path id="Path_403" data-name="Path 403" d="M476.643,474.109c-21.734-.047-36.487-20.74-29.719-41.744,1.448-4.5,3.415-8.85,4.565-13.415,3.092-12.265-2-19.382-14.2-22.729-5.775-1.586-12.209-4.373-16.055-8.666-9.541-10.65-5.6-26.746,7.231-33.34,4.9-2.518,10.249-4.2,15.019-6.923,12.451-7.108,18.895-17.927,18.672-32.424-.065-4.21-.6-8.42-.546-12.623a21.174,21.174,0,0,1,18-20.876c9.99-1.675,20.033,4.517,23.51,14.5a21.287,21.287,0,0,1-10.036,25.66c-3.7,1.971-7.705,3.369-11.564,5.045-15.354,6.67-22.986,19.764-22.123,36.457a132.46,132.46,0,0,1-1.01,22.683c-1.519,12.523,3.149,20.267,15.322,23.717,3.788,1.073,7.7,1.7,11.493,2.757,15.812,4.395,25.03,19.151,22.521,35.91C505.489,463.026,492.209,474.144,476.643,474.109Z" transform="translate(97.262 22.473)" fill="#fff"/>
    <path id="Path_404" data-name="Path 404" d="M398.1,609.159c-4.644-1.08-10.714-1.862-16.3-3.935-8.643-3.2-9.767-6.989-5.394-15.17,11.828-22.122,13.656-45.555,8.515-69.628-1.4-6.553-4.7-12.766-7.6-18.915-5.285-11.212-2.821-23.277,6.768-31.2a24.861,24.861,0,0,1,30.661-.482c9.407,7.215,12.364,19.263,7.47,30.44-2.94,6.72-6.562,13.232-8.7,20.2-6.642,21.647-2.547,42.4,8.23,61.53,8.309,14.748,7.291,21.023-12.9,25.614C405.783,608.3,402.615,608.521,398.1,609.159Z" transform="translate(72.838 129.171)" fill="#fff"/>
    <path id="Path_405" data-name="Path 405" d="M490.5,315.725A33.771,33.771,0,0,1,524.34,349.9a34.131,34.131,0,0,1-33.9,33.493c-18.4.111-33.355-14.837-33.578-33.548C456.636,330.693,471.324,315.794,490.5,315.725Z" transform="translate(121.028 42.589)" fill="#fff"/>
    <path id="Path_406" data-name="Path 406" d="M553.68,390.464c-.079,17.015-14.518,31.275-31.439,31.05a31.177,31.177,0,1,1,31.439-31.05Z" transform="translate(141.171 67.821)" fill="#fff"/>
    <path id="Path_407" data-name="Path 407" d="M277.9,369.856a29.463,29.463,0,1,1-29.375,29.692A29.2,29.2,0,0,1,277.9,369.856Z" transform="translate(0 74.033)" fill="#fff"/>
    <path id="Path_408" data-name="Path 408" d="M303.291,316.774a25.459,25.459,0,1,1-25.606,25.258A25.038,25.038,0,0,1,303.291,316.774Z" transform="translate(16.944 43.198)" fill="#fff"/>
    <path id="Path_409" data-name="Path 409" d="M363.168,306.887a21.749,21.749,0,1,1,21.538-21.734A21.922,21.922,0,0,1,363.168,306.887Z" transform="translate(53.834 12.187)" fill="#fff"/>
    <path id="Path_410" data-name="Path 410" d="M313.87,419.521a21.666,21.666,0,1,1-21.745,21.405A21.841,21.841,0,0,1,313.87,419.521Z" transform="translate(25.331 102.884)" fill="#fff"/>
    <path id="Path_411" data-name="Path 411" d="M491.714,445.8a21.394,21.394,0,1,1,21.613-21.3A21.489,21.489,0,0,1,491.714,445.8Z" transform="translate(128.781 93.295)" fill="#fff"/>
    <path id="Path_412" data-name="Path 412" d="M430.268,281.14c8.322.411,15.446,8.251,14.9,16.4-.537,8.015-7.908,14.893-15.8,14.745-8.274-.156-15.525-7.784-15.246-16.037C414.407,287.876,422.043,280.732,430.268,281.14Z" transform="translate(96.197 22.489)" fill="#fff"/>
  </g>
</svg>
