<svg id="completed-task" xmlns="http://www.w3.org/2000/svg" width="60" height="60" viewBox="0 0 60 60">
  <path id="Path_67" data-name="Path 67" d="M3.75,16H45a3.75,3.75,0,0,1,3.75,3.75V70.375A3.75,3.75,0,0,1,45,74.125H3.75A3.75,3.75,0,0,1,0,70.375V19.75A3.75,3.75,0,0,1,3.75,16Zm0,0" transform="translate(0 -14.125)" fill="#f0c087"/>
  <path id="Path_68" data-name="Path 68" d="M32,86.276V48H73.25V98.625h-28.9Zm0,0" transform="translate(-28.25 -42.375)" fill="#fff"/>
  <path id="Path_69" data-name="Path 69" d="M44.349,374.625v12.349L32,374.625Zm0,0" transform="translate(-28.25 -330.724)" fill="#e76e54"/>
  <path id="Path_70" data-name="Path 70" d="M128,7.5V0h18.75V7.5A3.75,3.75,0,0,1,143,11.25H131.75A3.75,3.75,0,0,1,128,7.5Zm0,0" transform="translate(-113)" fill="#e76e54"/>
  <path id="Path_71" data-name="Path 71" d="M257.75,240.875A16.875,16.875,0,1,1,240.875,224,16.875,16.875,0,0,1,257.75,240.875Zm0,0" transform="translate(-197.75 -197.75)" fill="#0ed7a0"/>
  <path id="Path_72" data-name="Path 72" d="M303.5,334.826l-3.634-3.636a1.875,1.875,0,0,1,2.651-2.651l1.215,1.213,8.492-7.078a1.876,1.876,0,0,1,2.4,2.882Zm0,0" transform="translate(-264.24 -284.476)" fill="#055360"/>
  <g id="Group_11" data-name="Group 11" transform="translate(11.25 15)">
    <path id="Path_73" data-name="Path 73" d="M161.875,128h15a1.875,1.875,0,0,1,0,3.75h-15a1.875,1.875,0,0,1,0-3.75Zm0,0" transform="translate(-152.5 -128)" fill="#77959e"/>
    <path id="Path_74" data-name="Path 74" d="M96,128h3.75v3.75H96Zm0,0" transform="translate(-96 -128)" fill="#77959e"/>
    <path id="Path_75" data-name="Path 75" d="M96,192h3.75v3.75H96Zm0,0" transform="translate(-96 -184.5)" fill="#77959e"/>
    <path id="Path_76" data-name="Path 76" d="M96,256h3.75v3.75H96Zm0,0" transform="translate(-96 -241)" fill="#77959e"/>
    <path id="Path_77" data-name="Path 77" d="M96,320h3.75v3.75H96Zm0,0" transform="translate(-96 -297.5)" fill="#77959e"/>
    <path id="Path_78" data-name="Path 78" d="M161.875,192h11.25a1.875,1.875,0,0,1,0,3.75h-11.25a1.875,1.875,0,0,1,0-3.75Zm0,0" transform="translate(-152.5 -184.5)" fill="#77959e"/>
    <path id="Path_79" data-name="Path 79" d="M161.875,256h3.75a1.875,1.875,0,0,1,0,3.75h-3.75a1.875,1.875,0,0,1,0-3.75Zm0,0" transform="translate(-152.5 -241)" fill="#77959e"/>
  </g>
</svg>
