<svg id="Icon1" xmlns="http://www.w3.org/2000/svg" width="56" height="56" viewBox="0 0 56 56">
  <circle id="Oval_Copy_2" data-name="Oval Copy 2" cx="28" cy="28" r="28" fill="#0ed7a0"/>
  <g id="Group_104" data-name="Group 104" transform="translate(11 11)">
    <path id="layer2" d="M27.5,26.5H30A1.65,1.65,0,0,0,31.5,25V21.5A1.65,1.65,0,0,0,30,20H27.5M13,20H10.5A1.65,1.65,0,0,0,9,21.5V25a1.65,1.65,0,0,0,1.5,1.5h3.1" transform="translate(-3.5 -9)" fill="none" stroke="#00333b" stroke-linecap="round" stroke-linejoin="round" stroke-miterlimit="10" stroke-width="1.5"/>
    <path id="layer1" d="M21.2,22.15A9.655,9.655,0,0,1,17,14V9c0-5.2,3.9-7,7.2-7s7.3,1.8,7.3,7v8A3.757,3.757,0,0,1,28,20.5" transform="translate(-7.5)" fill="none" stroke="#00333b" stroke-linecap="round" stroke-linejoin="round" stroke-miterlimit="10" stroke-width="1.5"/>
    <path id="layer1-2" data-name="layer1" d="M13,40.15V41.5c0,1,.2,2.5-5.3,3.5A7.1,7.1,0,0,0,2,50.5H31.5A7.3,7.3,0,0,0,25.7,45c-5.35-1-5.2-2.5-5.2-3.5V39" transform="translate(0 -18.5)" fill="none" stroke="#00333b" stroke-linecap="round" stroke-linejoin="round" stroke-miterlimit="10" stroke-width="1.5"/>
    <path id="layer2-2" data-name="layer2" d="M35,37.5A1.5,1.5,0,0,0,33.5,36h-1a1.5,1.5,0,0,0,0,3h1A1.5,1.5,0,0,0,35,37.5Z" transform="translate(-14.5 -17)" fill="none" stroke="#00333b" stroke-linecap="round" stroke-linejoin="round" stroke-miterlimit="10" stroke-width="1.5"/>
    <path id="layer1-3" data-name="layer1" d="M19.2,29.25l5,6.25,5.1-6.25M17,14c6,0,6-4,10-4a4.278,4.278,0,0,1,4.5,3.5" transform="translate(-7.5 -4)" fill="none" stroke="#00333b" stroke-linecap="round" stroke-linejoin="round" stroke-miterlimit="10" stroke-width="1.5"/>
  </g>
</svg>
