<svg xmlns="http://www.w3.org/2000/svg" width="60" height="36.138" viewBox="0 0 60 36.138">
  <g id="handshake" transform="translate(0 -101.81)">
    <path id="Path_52" data-name="Path 52" d="M159.894,131.76l-1.524-12.381-2.856.352v0l-5.537-3.116a3.337,3.337,0,0,0-1.943-.415l-8.743.809a3.336,3.336,0,0,0-2.577,1.646l-6.162,10.606a1.466,1.466,0,0,0,.75,2.108l.252.1a5.466,5.466,0,0,0,1.481.331l-.781.68-1.562,1.361-4.443,3.79a1.9,1.9,0,0,0-.184,2.679l.451.516a2.44,2.44,0,0,0,3.441.235l1.7,1.948a2.435,2.435,0,0,0,3.441.235l1.7,1.948a2.441,2.441,0,0,0,3.443.237l.922.8a2.441,2.441,0,0,0,3.443.236l1.253-1.093,10.535-8.2.011-.01,4.156,0Z" transform="translate(-110.879 -12.689)" fill="#f29f5c"/>
    <path id="Path_53" data-name="Path 53" d="M155.389,263.692l-.011.01-10.535,8.2L143.59,273a2.441,2.441,0,0,1-3.443-.236l-.922-.8a2.441,2.441,0,0,1-3.443-.237l-1.7-1.948a2.435,2.435,0,0,1-3.441-.235l-1.7-1.948a2.439,2.439,0,0,1-3.021.144,1.9,1.9,0,0,0,.15,2.295l.451.516a2.44,2.44,0,0,0,3.441.235l1.7,1.948a2.435,2.435,0,0,0,3.441.235l1.7,1.948a2.441,2.441,0,0,0,3.443.237l.922.8a2.441,2.441,0,0,0,3.443.236l1.253-1.093,10.535-8.2.011-.01,4.156,0-.46-3.735Z" transform="translate(-110.89 -142.426)" fill="#d37d42"/>
    <path id="Path_54" data-name="Path 54" d="M114.154,143l-5.644-4.867-1.57-1.352-1.123-.967-4.829-4.162.558-4.747a3.276,3.276,0,0,0-2.38-3.54L88.639,120.45a2.436,2.436,0,0,0-2.818,1.237L84.5,124.271l-5.682-.386L77.36,136.275l-.633,5.384,5.531.368.011.01L93.824,152l1.259,1.086a2.441,2.441,0,0,0,3.442-.256l1.685-1.955a2.441,2.441,0,0,0,3.442-.256l1.685-1.957a2.435,2.435,0,0,0,3.44-.254l1.687-1.957a2.44,2.44,0,0,0,3.44-.254l.448-.519A1.9,1.9,0,0,0,114.154,143Z" transform="translate(-67.736 -16.378)" fill="#f9c295"/>
    <g id="Group_8" data-name="Group 8" transform="translate(26.587 125.139)">
      <path id="Path_55" data-name="Path 55" d="M246.7,302.365l-1.719-1.482a2.015,2.015,0,0,1-.083,2.527l-.475.551a2.59,2.59,0,0,1-3.652.27l-1.791,2.077a2.585,2.585,0,0,1-3.652.27l-1.789,2.078a2.591,2.591,0,0,1-3.654.271L228.1,311a2.572,2.572,0,0,1-1.227.791l.762.657a2.441,2.441,0,0,0,3.442-.256l1.685-1.955a2.441,2.441,0,0,0,3.442-.256l1.685-1.957a2.435,2.435,0,0,0,3.44-.254l1.687-1.957a2.44,2.44,0,0,0,3.44-.254l.448-.519A1.9,1.9,0,0,0,246.7,302.365Z" transform="translate(-226.872 -300.883)" fill="#e59f6a"/>
      <path id="Path_56" data-name="Path 56" d="M335.256,315.72l-3.093-2.667a.879.879,0,1,0-1.148,1.331l3.087,2.662.582-.675a2.433,2.433,0,0,0,.764.444A.879.879,0,0,0,335.256,315.72Z" transform="translate(-318.542 -311.439)" fill="#e59f6a"/>
      <path id="Path_57" data-name="Path 57" d="M294.049,337.606a.879.879,0,0,0-.183-1.111l-2.778-2.4a.879.879,0,0,0-1.148,1.331l2.778,2.4,0,0,.574-.667A2.429,2.429,0,0,0,294.049,337.606Z" transform="translate(-282.28 -330.019)" fill="#e59f6a"/>
    </g>
    <g id="Group_9" data-name="Group 9" transform="translate(13.698 103.494)">
      <path id="Path_58" data-name="Path 58" d="M118,298.607l-.669.884a2.187,2.187,0,0,0,.423,3.063h0a2.187,2.187,0,0,0,3.063-.423l.669-.884a2.187,2.187,0,0,0-.423-3.063h0A2.187,2.187,0,0,0,118,298.607Z" transform="translate(-116.887 -276.464)" fill="#f29f5c"/>
      <path id="Path_59" data-name="Path 59" d="M148.341,314.474l-1.261,1.665a2.187,2.187,0,0,0,.423,3.063h0a2.187,2.187,0,0,0,3.063-.423l1.261-1.665a2.187,2.187,0,0,0-.423-3.063h0A2.187,2.187,0,0,0,148.341,314.474Z" transform="translate(-143.151 -290.472)" fill="#f29f5c"/>
      <path id="Path_60" data-name="Path 60" d="M178.548,331.848l-1.718,2.269a2.187,2.187,0,0,0,.423,3.063h0a2.187,2.187,0,0,0,3.063-.423l1.718-2.269a2.187,2.187,0,0,0-.423-3.063h0A2.187,2.187,0,0,0,178.548,331.848Z" transform="translate(-169.414 -305.81)" fill="#f29f5c"/>
      <path id="Path_61" data-name="Path 61" d="M208.4,353.255l-1.818,2.4a2.187,2.187,0,0,0,.423,3.063h0a2.187,2.187,0,0,0,3.063-.423l1.818-2.4a2.187,2.187,0,0,0-.423-3.063h0A2.187,2.187,0,0,0,208.4,353.255Z" transform="translate(-195.677 -324.708)" fill="#f29f5c"/>
      <path id="Path_62" data-name="Path 62" d="M191.338,119.728l-5.537-3.116a3.337,3.337,0,0,0-1.943-.415l-8.743.809a3.336,3.336,0,0,0-2.577,1.646l-6.162,10.606a1.466,1.466,0,0,0,.75,2.108l.252.1a5.479,5.479,0,0,0,6.281-1.787l2.361-3.073s5.675,6.571,11.924-1.1" transform="translate(-160.4 -116.183)" fill="#f29f5c"/>
    </g>
    <path id="Path_63" data-name="Path 63" d="M410.478,126.108l-2.9-23.525a.879.879,0,0,0-.98-.765l-6.772.834a3.217,3.217,0,0,0-2.8,3.582l2.325,18.891a3.212,3.212,0,0,0,3.582,2.8l6.772-.834A.879.879,0,0,0,410.478,126.108Z" transform="translate(-350.484 -0.001)" fill="#5c9cee"/>
    <path id="Path_64" data-name="Path 64" d="M426.393,287.234l-.318-2.582a.918.918,0,0,1-.648.4l-7.1.874a3.365,3.365,0,0,1-3.291-1.6l.237,1.925a3.212,3.212,0,0,0,3.582,2.8l6.772-.834A.879.879,0,0,0,426.393,287.234Z" transform="translate(-366.4 -161.128)" fill="#3580d3"/>
    <path id="Path_65" data-name="Path 65" d="M10.654,102.65l-6.772-.834a.879.879,0,0,0-.98.765l-2.9,23.526a.879.879,0,0,0,.765.98l6.772.834a3.212,3.212,0,0,0,3.582-2.8l2.325-18.891A3.217,3.217,0,0,0,10.654,102.65Z" transform="translate(0)" fill="#168541"/>
    <path id="Path_66" data-name="Path 66" d="M.007,287.234l.318-2.582a.918.918,0,0,0,.648.4l7.1.874a3.365,3.365,0,0,0,3.291-1.6l-.237,1.925a3.212,3.212,0,0,1-3.582,2.8l-6.772-.834A.879.879,0,0,1,.007,287.234Z" transform="translate(0 -161.128)" fill="#139847"/>
    <g id="Group_10" data-name="Group 10" transform="translate(3.831 120.641)">
      <circle id="Ellipse_1" data-name="Ellipse 1" cx="1.699" cy="1.699" r="1.699" transform="translate(48.845)" fill="#ebeef2"/>
      <circle id="Ellipse_2" data-name="Ellipse 2" cx="1.699" cy="1.699" r="1.699" fill="#ebeef2"/>
    </g>
  </g>
</svg>
