<svg xmlns="http://www.w3.org/2000/svg" width="60" height="60" viewBox="0 0 60 60">
  <g id="Group_134" data-name="Group 134" transform="translate(-623 -1366)">
    <g id="Icon" transform="translate(373 -167)">
      <rect id="Rectangle_41" data-name="Rectangle 41" width="60" height="60" rx="4" transform="translate(250 1533)" fill="#0ed7a0"/>
    </g>
    <g id="Group_83" data-name="Group 83" transform="translate(629 1377)">
      <path id="layer2" d="M16,42.051c2.267,0,5.643-3.178,7.358-4.533a2.9,2.9,0,0,1,3.414-.009c1.728,1.344,5.1,4.542,7.362,4.542M18.314,25.618c4.533-1.816,8.273,2.068,13.669-.122" transform="translate(-1.3 -10.018)" fill="none" stroke="#00333b" stroke-linecap="round" stroke-linejoin="round" stroke-miterlimit="10" stroke-width="1.5"/>
      <path id="layer1" d="M32.833,36V28.357a7.934,7.934,0,0,0-3.374-6.493l-3.132-2.2a.567.567,0,0,1,0-.928l3.131-2.2a7.933,7.933,0,0,0,3.374-6.492V2M14.7,2v8.047a7.933,7.933,0,0,0,3.374,6.492l3.131,2.2a.567.567,0,0,1,0,.928l-3.131,2.2A7.933,7.933,0,0,0,14.7,28.357V36M13,36H34.533M13,2H34.533" fill="none" stroke="#00333b" stroke-linecap="round" stroke-linejoin="round" stroke-miterlimit="10" stroke-width="1.5"/>
      <path id="layer2-2" data-name="layer2" d="M27.816,32.566c1.627.414,2.276,2.4,2.371,2.4A4.536,4.536,0,0,1,32.507,32.3" transform="translate(-6.42 -13.13)" fill="none" stroke="#00333b" stroke-linecap="round" stroke-linejoin="round" stroke-miterlimit="10" stroke-width="1.5"/>
    </g>
  </g>
</svg>
