<svg xmlns="http://www.w3.org/2000/svg" width="51.759" height="57.614" viewBox="0 0 51.759 57.614">
  <g id="Group_196" data-name="Group 196" transform="translate(-248.017 -241.703)">
    <path id="Path_402" data-name="Path 402" d="M312.673,271.958a4.954,4.954,0,0,1-4.074-1.7c-.1-.112-.192-.23-.3-.338-1.573-1.646-3.171-1.527-4.659.2a6.965,6.965,0,0,1-2.278,1.79,4.58,4.58,0,0,1-5.771-2.1,4.721,4.721,0,0,1,1.342-6.093c.367-.257.759-.479,1.148-.7,2.471-1.413,3.121-3.478,1.9-6.062a3.332,3.332,0,1,1,5.048,1.186,2.828,2.828,0,0,1-.524.346c-1.472.681-2.55,1.682-2.333,3.441A5.582,5.582,0,0,0,305.105,266c.88.536,1.855.143,2.6-.771.658-.809,1.331-1.607,2.029-2.381,1.153-1.28,1.125-2.753-.18-4.164a3.7,3.7,0,0,1-.992-3.954,5.476,5.476,0,0,1,1.285-1.9c1.743-1.757,1.86-3.18.307-5.113a3.176,3.176,0,1,1,4.7-4.275,3.178,3.178,0,0,1-.322,4.573c-1.7,1.591-1.749,2.924-.108,4.61A4.49,4.49,0,0,1,316.031,256a4.129,4.129,0,0,1-1.288,2.778c-1.554,1.6-1.462,2.906.283,4.306a4.879,4.879,0,0,1,1.869,5.493,4.06,4.06,0,0,0,3.75,5.134,5.309,5.309,0,0,1,5.315,5.524,5.488,5.488,0,0,1-9.73,3.457,5.155,5.155,0,0,0-6.127-1.678,9.227,9.227,0,0,0-2.492,1.836,3.983,3.983,0,1,1-5.142-6.07,3.919,3.919,0,0,1,4.69-.086,18.916,18.916,0,0,0,1.955,1.428,6.8,6.8,0,0,0,2.49.887,3.936,3.936,0,0,0,3.955-5.331C315.108,272.383,314.314,271.908,312.673,271.958Z" transform="translate(-38.136 0)" fill="#fff" stroke="rgba(0,0,0,0)" stroke-miterlimit="10" stroke-width="1"/>
    <path id="Path_403" data-name="Path 403" d="M422.85,303.046a3.568,3.568,0,0,1-3.38-4.747c.165-.511.388-1.006.519-1.526.352-1.395-.228-2.2-1.615-2.585a3.894,3.894,0,0,1-1.826-.986,2.426,2.426,0,0,1,.822-3.792c.557-.286,1.166-.478,1.708-.787a3.93,3.93,0,0,0,2.124-3.687c-.007-.479-.068-.958-.062-1.436a2.408,2.408,0,0,1,2.047-2.374,2.452,2.452,0,0,1,2.674,1.649,2.421,2.421,0,0,1-1.141,2.918c-.421.224-.876.383-1.315.574a4.023,4.023,0,0,0-2.516,4.146,15.067,15.067,0,0,1-.115,2.58,2.19,2.19,0,0,0,1.742,2.7c.431.122.876.194,1.307.314a3.588,3.588,0,0,1-.974,7.042Z" transform="translate(-137.329 -31.73)" fill="#fff" stroke="rgba(0,0,0,0)" stroke-miterlimit="10" stroke-width="1"/>
    <path id="Path_404" data-name="Path 404" d="M376.655,481.194a14.325,14.325,0,0,1-1.854-.448c-.983-.364-1.111-.795-.613-1.725a11.285,11.285,0,0,0,.968-7.918,10.266,10.266,0,0,0-.864-2.151,2.862,2.862,0,0,1,.77-3.549,2.829,2.829,0,0,1,4.336,3.407,21.976,21.976,0,0,0-.989,2.3,8.676,8.676,0,0,0,.936,7c.945,1.677.829,2.391-1.467,2.913C377.529,481.1,377.169,481.121,376.655,481.194Z" transform="translate(-102.844 -182.385)" fill="#fff" stroke="rgba(0,0,0,0)" stroke-miterlimit="10" stroke-width="1"/>
    <path id="Path_405" data-name="Path 405" d="M460.687,315.725a3.841,3.841,0,0,1,3.848,3.886,3.882,3.882,0,0,1-3.855,3.809,3.823,3.823,0,0,1-3.819-3.815A3.778,3.778,0,0,1,460.687,315.725Z" transform="translate(-170.887 -60.134)" fill="#fff" stroke="rgba(0,0,0,0)" stroke-miterlimit="10" stroke-width="1"/>
    <path id="Path_406" data-name="Path 406" d="M498.6,362.722a3.534,3.534,0,1,1-3.543-3.56A3.585,3.585,0,0,1,498.6,362.722Z" transform="translate(-199.328 -95.761)" fill="#fff" stroke="rgba(0,0,0,0)" stroke-miterlimit="10" stroke-width="1"/>
    <path id="Path_407" data-name="Path 407" d="M251.858,369.856a3.351,3.351,0,1,1-3.341,3.377A3.321,3.321,0,0,1,251.858,369.856Z" transform="translate(0 -104.532)" fill="#fff" stroke="rgba(0,0,0,0)" stroke-miterlimit="10" stroke-width="1"/>
    <path id="Path_408" data-name="Path 408" d="M280.6,316.774a2.9,2.9,0,1,1-2.912,2.872A2.847,2.847,0,0,1,280.6,316.774Z" transform="translate(-23.924 -60.994)" fill="#fff" stroke="rgba(0,0,0,0)" stroke-miterlimit="10" stroke-width="1"/>
    <path id="Path_409" data-name="Path 409" d="M343.689,268.336a2.473,2.473,0,1,1,2.449-2.472A2.493,2.493,0,0,1,343.689,268.336Z" transform="translate(-76.011 -17.208)" fill="#fff" stroke="rgba(0,0,0,0)" stroke-miterlimit="10" stroke-width="1"/>
    <path id="Path_410" data-name="Path 410" d="M294.6,419.521a2.464,2.464,0,1,1-2.473,2.434A2.484,2.484,0,0,1,294.6,419.521Z" transform="translate(-35.766 -145.268)" fill="#fff" stroke="rgba(0,0,0,0)" stroke-miterlimit="10" stroke-width="1"/>
    <path id="Path_411" data-name="Path 411" d="M472.653,407.88a2.444,2.444,0,0,1-2.446-2.442c.007-1.339,2.468-2.424,2.468-2.424s2.44,1.088,2.436,2.444A2.423,2.423,0,0,1,472.653,407.88Z" transform="translate(-181.833 -131.729)" fill="#fff" stroke="rgba(0,0,0,0)" stroke-miterlimit="10" stroke-width="1"/>
    <path id="Path_412" data-name="Path 412" d="M415.953,281.125a1.772,1.772,0,1,1-1.836,1.718A1.832,1.832,0,0,1,415.953,281.125Z" transform="translate(-135.826 -31.753)" fill="#fff" stroke="rgba(0,0,0,0)" stroke-miterlimit="10" stroke-width="1"/>
  </g>
</svg>
