<svg xmlns="http://www.w3.org/2000/svg" width="60" height="60" viewBox="0 0 60 60">
  <g id="Group_130" data-name="Group 130" transform="translate(-909 -1366)">
    <g id="Icon" transform="translate(659 -167)">
      <rect id="Rectangle_41" data-name="Rectangle 41" width="60" height="60" rx="4" transform="translate(250 1533)" fill="#0ed7a0"/>
    </g>
    <g id="Group_84" data-name="Group 84" transform="translate(920 1374)">
      <path id="layer2" d="M22.4,28.133H3.36A1.36,1.36,0,0,1,2,26.773V11.36A1.36,1.36,0,0,1,3.36,10H27.84a1.36,1.36,0,0,1,1.36,1.36V16.8M2,14.533H29.2M6.59,19.067H15.6M6.533,23.6H10.5" fill="none" stroke="#00333b" stroke-linecap="round" stroke-linejoin="round" stroke-miterlimit="10" stroke-width="1.5"/>
      <path id="layer1" d="M38,31.067H51.6v9.067H38Zm3.4,0V25.4a3.4,3.4,0,0,1,6.8,0v5.667m-3.4,3.4v2.267" transform="translate(-15.6 -5.2)" fill="none" stroke="#00333b" stroke-linecap="round" stroke-linejoin="round" stroke-miterlimit="10" stroke-width="1.5"/>
    </g>
  </g>
</svg>
